<svg width="83" height="24" viewBox="0 0 83 24" fill="none" xmlns="http://www.w3.org/2000/svg">
<path d="M4.59198 0.152008V17H0.487976V0.152008H4.59198Z" fill="#F8F7F9"/>
<path d="M13.0141 17.192C11.8461 17.192 10.8061 16.992 9.8941 16.592C8.9821 16.192 8.2621 15.648 7.7341 14.96C7.2061 14.256 6.9101 13.472 6.8461 12.608H10.9021C10.9501 13.072 11.1661 13.448 11.5501 13.736C11.9341 14.024 12.4061 14.168 12.9661 14.168C13.4781 14.168 13.8701 14.072 14.1421 13.88C14.4301 13.672 14.5741 13.408 14.5741 13.088C14.5741 12.704 14.3741 12.424 13.9741 12.248C13.5741 12.056 12.9261 11.848 12.0301 11.624C11.0701 11.4 10.2701 11.168 9.6301 10.928C8.9901 10.672 8.4381 10.28 7.9741 9.75201C7.5101 9.20801 7.2781 8.48001 7.2781 7.56801C7.2781 6.80001 7.4861 6.10401 7.9021 5.48001C8.3341 4.84001 8.9581 4.33601 9.7741 3.96801C10.6061 3.60001 11.5901 3.41601 12.7261 3.41601C14.4061 3.41601 15.7261 3.83201 16.6861 4.66401C17.6621 5.49601 18.2221 6.60001 18.3661 7.97601H14.5741C14.5101 7.51201 14.3021 7.14401 13.9501 6.87201C13.6141 6.60001 13.1661 6.46401 12.6061 6.46401C12.1261 6.46401 11.7581 6.56001 11.5021 6.75201C11.2461 6.92801 11.1181 7.17601 11.1181 7.49601C11.1181 7.88001 11.3181 8.16801 11.7181 8.36001C12.1341 8.55201 12.7741 8.74401 13.6381 8.93601C14.6301 9.19201 15.4381 9.44801 16.0621 9.70401C16.6861 9.94401 17.2301 10.344 17.6941 10.904C18.1741 11.448 18.4221 12.184 18.4381 13.112C18.4381 13.896 18.2141 14.6 17.7661 15.224C17.3341 15.832 16.7021 16.312 15.8701 16.664C15.0541 17.016 14.1021 17.192 13.0141 17.192Z" fill="#F8F7F9"/>
<path d="M20.1329 10.28C20.1329 8.90401 20.3889 7.69601 20.9009 6.65601C21.4289 5.61601 22.1409 4.81601 23.0369 4.25601C23.9329 3.69601 24.9329 3.41601 26.0369 3.41601C26.9809 3.41601 27.8049 3.60801 28.5089 3.99201C29.2289 4.37601 29.7809 4.88001 30.1649 5.50401V3.60801H34.2689V17H30.1649V15.104C29.7649 15.728 29.2049 16.232 28.4849 16.616C27.7809 17 26.9569 17.192 26.0129 17.192C24.9249 17.192 23.9329 16.912 23.0369 16.352C22.1409 15.776 21.4289 14.968 20.9009 13.928C20.3889 12.872 20.1329 11.656 20.1329 10.28ZM30.1649 10.304C30.1649 9.28001 29.8769 8.47201 29.3009 7.88001C28.7409 7.28801 28.0529 6.99201 27.2369 6.99201C26.4209 6.99201 25.7249 7.28801 25.1489 7.88001C24.5889 8.45601 24.3089 9.25601 24.3089 10.28C24.3089 11.304 24.5889 12.12 25.1489 12.728C25.7249 13.32 26.4209 13.616 27.2369 13.616C28.0529 13.616 28.7409 13.32 29.3009 12.728C29.8769 12.136 30.1649 11.328 30.1649 10.304Z" fill="#F8F7F9"/>
<path d="M36.422 10.328C36.422 9.00001 36.694 7.81601 37.238 6.77601C37.798 5.73601 38.542 4.92801 39.47 4.35201C40.414 3.76001 41.438 3.46401 42.542 3.46401C43.39 3.46401 44.15 3.61601 44.822 3.92001C45.494 4.20801 46.038 4.61601 46.454 5.14401V3.60801H50.558V23.384H46.454V15.32C45.99 15.88 45.422 16.328 44.75 16.664C44.094 17 43.342 17.168 42.494 17.168C41.406 17.168 40.398 16.88 39.47 16.304C38.542 15.728 37.798 14.92 37.238 13.88C36.694 12.84 36.422 11.656 36.422 10.328ZM46.454 10.304C46.454 9.58401 46.31 8.98401 46.022 8.50401C45.75 8.00801 45.39 7.64001 44.942 7.40001C44.494 7.14401 44.022 7.01601 43.526 7.01601C43.046 7.01601 42.582 7.14401 42.134 7.40001C41.686 7.64001 41.318 8.00801 41.03 8.50401C40.742 9.00001 40.598 9.60801 40.598 10.328C40.598 11.048 40.742 11.656 41.03 12.152C41.318 12.632 41.686 13 42.134 13.256C42.582 13.496 43.046 13.616 43.526 13.616C44.006 13.616 44.47 13.496 44.918 13.256C45.382 13 45.75 12.624 46.022 12.128C46.31 11.632 46.454 11.024 46.454 10.304Z" fill="#F8F7F9"/>
<path d="M66.751 3.60801V17H62.647V15.176C62.231 15.768 61.663 16.248 60.943 16.616C60.239 16.968 59.455 17.144 58.591 17.144C57.567 17.144 56.663 16.92 55.879 16.472C55.095 16.008 54.487 15.344 54.055 14.48C53.623 13.616 53.407 12.6 53.407 11.432V3.60801H57.487V10.88C57.487 11.776 57.719 12.472 58.183 12.968C58.647 13.464 59.271 13.712 60.055 13.712C60.855 13.712 61.487 13.464 61.951 12.968C62.415 12.472 62.647 11.776 62.647 10.88V3.60801H66.751Z" fill="#F8F7F9"/>
<path d="M82.3229 10.088C82.3229 10.472 82.2989 10.872 82.2509 11.288H72.9629C73.0269 12.12 73.2909 12.76 73.7549 13.208C74.2349 13.64 74.8189 13.856 75.5069 13.856C76.5309 13.856 77.2429 13.424 77.6429 12.56H82.0109C81.7869 13.44 81.3789 14.232 80.7869 14.936C80.2109 15.64 79.4829 16.192 78.6029 16.592C77.7229 16.992 76.7389 17.192 75.6509 17.192C74.3389 17.192 73.1709 16.912 72.1469 16.352C71.1229 15.792 70.3229 14.992 69.7469 13.952C69.1709 12.912 68.8829 11.696 68.8829 10.304C68.8829 8.91201 69.1629 7.69601 69.7229 6.65601C70.2989 5.61601 71.0989 4.81601 72.1229 4.25601C73.1469 3.69601 74.3229 3.41601 75.6509 3.41601C76.9469 3.41601 78.0989 3.68801 79.1069 4.23201C80.1149 4.77601 80.8989 5.55201 81.4589 6.56001C82.0349 7.56801 82.3229 8.74401 82.3229 10.088ZM78.1229 9.00801C78.1229 8.30401 77.8829 7.74401 77.4029 7.32801C76.9229 6.91201 76.3229 6.70401 75.6029 6.70401C74.9149 6.70401 74.3309 6.90401 73.8509 7.30401C73.3869 7.70401 73.0989 8.27201 72.9869 9.00801H78.1229Z" fill="#F8F7F9"/>
</svg>
