<svg width="107" height="23" viewBox="0 0 107 23" fill="none" xmlns="http://www.w3.org/2000/svg">
<path d="M0 22.304H8.896V21.856C5.696 21.44 4.736 20.096 4.736 16.864V2.176H4.928L13.248 22.336H14.4L21.856 2.176H22.016V20.032C22.016 21.312 21.216 21.76 18.944 21.856V22.304H29.984V21.856C27.296 21.76 26.656 21.248 26.656 20.032V2.272C26.656 1.056 27.296 0.511999 29.984 0.416V0H21.824L15.776 16.448H15.616L9.024 0H0V0.416C2.752 0.48 3.936 1.952 3.936 3.872V16.864C3.936 20.096 3.008 21.472 0 21.856V22.304Z" fill="white"/>
<path d="M51.168 22.656H52.704V5.408C52.704 2.24 53.568 0.864 56.576 0.416V0H47.488V0.416C50.72 0.799999 51.904 2.24 51.904 5.408V16.032H51.872L39.552 0H32V0.416C34.752 0.544001 35.936 2.176 35.936 4.128V16.864C35.936 20.096 35.008 21.472 32 21.856V22.304H41.024V21.856C37.76 21.504 36.736 20.096 36.736 16.864V4.032H36.768L51.168 22.656Z" fill="white"/>
<path d="M62.64 22.304H74.736V21.856C71.888 21.792 71.024 21.248 71.024 20.032V0.576H71.792C74.256 0.576 76.176 3.04 78.416 7.392L78.896 7.328L78.736 0H58.608L58.416 7.328L58.896 7.392C61.168 2.944 63.12 0.576 65.552 0.576H66.352V20.032C66.352 21.248 65.456 21.792 62.64 21.856V22.304Z" fill="white"/>
<path d="M101.168 22.656H102.704V5.408C102.704 2.24 103.568 0.864 106.576 0.416V0H97.488V0.416C100.72 0.799999 101.904 2.24 101.904 5.408V16.032H101.872L89.552 0H82V0.416C84.752 0.544001 85.936 2.176 85.936 4.128V16.864C85.936 20.096 85.008 21.472 82 21.856V22.304H91.024V21.856C87.76 21.504 86.736 20.096 86.736 16.864V4.032H86.768L101.168 22.656Z" fill="white"/>
</svg>
