<svg width="110" height="23" viewBox="0 0 110 23" fill="none" xmlns="http://www.w3.org/2000/svg">
<path d="M0 3.41504C0 2.47504 0.35 1.74504 1.05 1.22504C1.75 0.685039 2.74 0.415039 4.02 0.415039V18.955C4.02 19.915 3.67 20.655 2.97 21.175C2.27 21.695 1.28 21.955 0 21.955V3.41504Z" fill="url(#paint0_linear_1607_2)"/>
<path d="M17.2805 21.955C15.4805 21.955 13.9105 21.735 12.5705 21.295C11.2305 20.855 10.2005 20.235 9.48047 19.435C8.78047 18.615 8.43047 17.665 8.43047 16.585C8.43047 14.945 9.54047 14.125 11.7605 14.125C11.8405 15.645 12.3505 16.795 13.2905 17.575C14.2505 18.355 15.5905 18.745 17.3105 18.745C18.7305 18.745 19.8305 18.505 20.6105 18.025C21.3905 17.525 21.7805 16.835 21.7805 15.955C21.7805 15.375 21.6305 14.905 21.3305 14.545C21.0305 14.165 20.5205 13.835 19.8005 13.555C19.0805 13.255 18.0305 12.955 16.6505 12.655C14.6905 12.195 13.1405 11.685 12.0005 11.125C10.8805 10.565 10.0705 9.89504 9.57047 9.11504C9.07047 8.31504 8.82047 7.32504 8.82047 6.14504C8.82047 5.00504 9.15047 4.00504 9.81047 3.14504C10.4905 2.28504 11.4405 1.61504 12.6605 1.13504C13.9005 0.655039 15.3205 0.415039 16.9205 0.415039C18.4605 0.415039 19.8305 0.625039 21.0305 1.04504C22.2505 1.44504 23.2005 2.01504 23.8805 2.75504C24.5805 3.49504 24.9305 4.34504 24.9305 5.30504C24.9305 6.78504 23.8605 7.55504 21.7205 7.61504C21.6005 6.23504 21.1605 5.22504 20.4005 4.58504C19.6405 3.94504 18.4805 3.62504 16.9205 3.62504C15.5805 3.62504 14.5505 3.84504 13.8305 4.28504C13.1105 4.72504 12.7505 5.34504 12.7505 6.14504C12.7505 6.70504 12.8905 7.17504 13.1705 7.55504C13.4505 7.91504 13.9205 8.23504 14.5805 8.51504C15.2405 8.77504 16.1805 9.04504 17.4005 9.32504C19.4605 9.78504 21.0905 10.305 22.2905 10.885C23.4905 11.445 24.3605 12.135 24.9005 12.955C25.4405 13.755 25.7105 14.745 25.7105 15.925C25.7105 17.145 25.3605 18.215 24.6605 19.135C23.9805 20.035 23.0005 20.735 21.7205 21.235C20.4605 21.715 18.9805 21.955 17.2805 21.955Z" fill="url(#paint1_linear_1607_2)"/>
<path d="M30.8691 21.955C30.0091 21.855 29.3291 21.555 28.8291 21.055C28.3491 20.555 28.1091 19.925 28.1091 19.165C28.1091 18.585 28.2491 17.985 28.5291 17.365L35.3991 1.73504C35.7791 0.855039 36.4391 0.415039 37.3791 0.415039C38.2991 0.415039 38.9491 0.855039 39.3291 1.73504L46.1991 17.365C46.4791 18.025 46.6191 18.625 46.6191 19.165C46.6191 19.925 46.3691 20.555 45.8691 21.055C45.3891 21.555 44.7091 21.855 43.8291 21.955L41.3091 16.255H33.4191L30.8691 21.955ZM40.0791 12.835L36.7791 4.61504L36.4191 4.76504L37.1391 6.62504L34.6191 12.835H40.0791Z" fill="url(#paint2_linear_1607_2)"/>
<path d="M65.3116 22.585C64.6716 22.585 64.0816 22.435 63.5416 22.135C63.0216 21.835 62.5916 21.425 62.2516 20.905C60.9116 21.605 59.4316 21.955 57.8116 21.955C56.1716 21.955 54.6716 21.635 53.3116 20.995C51.9516 20.335 50.8716 19.445 50.0716 18.325C49.2916 17.205 48.9016 15.985 48.9016 14.665V7.67504C48.9016 6.35504 49.2916 5.14504 50.0716 4.04504C50.8716 2.92504 51.9516 2.04504 53.3116 1.40504C54.6716 0.745039 56.1716 0.415039 57.8116 0.415039C59.4516 0.415039 60.9516 0.745039 62.3116 1.40504C63.6916 2.04504 64.7716 2.92504 65.5516 4.04504C66.3516 5.14504 66.7516 6.35504 66.7516 7.67504V14.665C66.7516 15.505 66.5916 16.305 66.2716 17.065C65.9716 17.825 65.5116 18.505 64.8916 19.105C65.1716 19.465 65.5416 19.745 66.0016 19.945C66.4816 20.145 66.9716 20.225 67.4716 20.185C67.4716 21.025 67.3016 21.635 66.9616 22.015C66.6216 22.395 66.0716 22.585 65.3116 22.585ZM62.3716 15.955C62.6316 15.615 62.7616 15.175 62.7616 14.635V7.76504C62.7616 6.60504 62.3116 5.67504 61.4116 4.97504C60.5116 4.25504 59.3116 3.89504 57.8116 3.89504C56.3316 3.89504 55.1416 4.25504 54.2416 4.97504C53.3416 5.67504 52.8916 6.60504 52.8916 7.76504V12.925C53.6316 12.725 54.2816 12.625 54.8416 12.625C56.4416 12.625 57.8216 12.865 58.9816 13.345C60.1616 13.825 61.2916 14.695 62.3716 15.955ZM57.8116 18.505C58.6116 18.505 59.4116 18.365 60.2116 18.085C59.4116 17.045 58.5916 16.355 57.7516 16.015C56.9316 15.675 55.8816 15.505 54.6016 15.505C54.2016 15.505 53.7016 15.585 53.1016 15.745C53.4016 16.565 53.9616 17.235 54.7816 17.755C55.6216 18.255 56.6316 18.505 57.8116 18.505Z" fill="url(#paint3_linear_1607_2)"/>
<path d="M79.991 21.955C78.311 21.955 76.791 21.615 75.431 20.935C74.091 20.255 73.041 19.315 72.281 18.115C71.521 16.915 71.141 15.555 71.141 14.035V3.38504C71.141 2.42504 71.481 1.69504 72.161 1.19504C72.841 0.675039 73.841 0.415039 75.161 0.415039V14.035C75.161 15.375 75.601 16.445 76.481 17.245C77.361 18.045 78.531 18.445 79.991 18.445C81.451 18.445 82.621 18.045 83.501 17.245C84.381 16.445 84.821 15.375 84.821 14.035V3.38504C84.821 2.40504 85.161 1.66504 85.841 1.16504C86.521 0.665039 87.521 0.415039 88.841 0.415039V14.035C88.841 15.555 88.461 16.915 87.701 18.115C86.941 19.315 85.881 20.255 84.521 20.935C83.181 21.615 81.671 21.955 79.991 21.955Z" fill="url(#paint4_linear_1607_2)"/>
<path d="M93.109 2.51504C93.109 2.01504 93.299 1.58504 93.679 1.22504C94.079 0.865039 94.559 0.685039 95.119 0.685039H108.499C108.499 1.88504 108.289 2.76504 107.869 3.32504C107.469 3.86504 106.809 4.13504 105.889 4.13504H97.129V9.35504H105.109C105.109 10.555 104.899 11.435 104.479 11.995C104.079 12.535 103.419 12.805 102.499 12.805H97.129V18.235H106.519C107.419 18.235 108.069 18.515 108.469 19.075C108.889 19.615 109.099 20.485 109.099 21.685H95.119C94.559 21.685 94.079 21.515 93.679 21.175C93.299 20.815 93.109 20.375 93.109 19.855V2.51504Z" fill="url(#paint5_linear_1607_2)"/>
<defs>
<linearGradient id="paint0_linear_1607_2" x1="-2.37" y1="9.55603" x2="110.63" y2="9.55602" gradientUnits="userSpaceOnUse">
<stop stop-color="#FA6E00"/>
<stop offset="1" stop-color="#E60026"/>
</linearGradient>
<linearGradient id="paint1_linear_1607_2" x1="-2.37" y1="9.55603" x2="110.63" y2="9.55602" gradientUnits="userSpaceOnUse">
<stop stop-color="#FA6E00"/>
<stop offset="1" stop-color="#E60026"/>
</linearGradient>
<linearGradient id="paint2_linear_1607_2" x1="-2.37" y1="9.55603" x2="110.63" y2="9.55602" gradientUnits="userSpaceOnUse">
<stop stop-color="#FA6E00"/>
<stop offset="1" stop-color="#E60026"/>
</linearGradient>
<linearGradient id="paint3_linear_1607_2" x1="-2.37" y1="9.55603" x2="110.63" y2="9.55602" gradientUnits="userSpaceOnUse">
<stop stop-color="#FA6E00"/>
<stop offset="1" stop-color="#E60026"/>
</linearGradient>
<linearGradient id="paint4_linear_1607_2" x1="-2.37" y1="9.55603" x2="110.63" y2="9.55602" gradientUnits="userSpaceOnUse">
<stop stop-color="#FA6E00"/>
<stop offset="1" stop-color="#E60026"/>
</linearGradient>
<linearGradient id="paint5_linear_1607_2" x1="-2.37" y1="9.55603" x2="110.63" y2="9.55602" gradientUnits="userSpaceOnUse">
<stop stop-color="#FA6E00"/>
<stop offset="1" stop-color="#E60026"/>
</linearGradient>
</defs>
</svg>
